P3
6 8
255
  0   0   0   0   0   0   0   0   0   0   0   0   0   0   0 
  0   0   0
  0   0 255   0   0 255   0   0 255   0   0   0   0   0   0 
  0   0   0
  0   0   0   0   0   0   0   0   0   0   0   0   0   0   0 
  0   0   0
  0   0   0   0   0   0   0   0   0   0   0   0   0   0   0 
  0   0   0
  0   0   0   0   0   0   0   0   0   0   0   0   0   0   0 
  0   0   0
255   0   0   0   0   0   0   0   0   0   0   0   0   0   0 
  0   0   0
  0   0   0 255   0   0 255   0   0   0   0   0   0   0   0 
  0   0   0
255   0   0 255   0   0   0   0   0   0   0   0   0   0   0 
  0   0   0
